<?xml version="1.0" encoding="UTF-8"?>
<svg width="46px" height="45px" viewBox="0 0 46 45" version="1.1" xmlns="http://www.w3.org/2000/svg" xmlns:xlink="http://www.w3.org/1999/xlink">
    <!-- Generator: Sketch 59.1 (86144) - https://sketch.com -->
    <title>linkedin</title>
    <desc>Created with Sketch.</desc>
    <g id="Page-1" stroke="none" stroke-width="1" fill="none" fill-rule="evenodd">
        <g id="linkedin" fill="#1E1D1D" fill-rule="nonzero">
            <path d="M5.51901786,0.0378571429 C8.51410714,0.0378571429 11.03625,2.56 11.03625,5.55508929 C11.03625,8.70776786 8.35642857,11.1511607 5.51901786,11.0723214 C2.60276786,11.1511607 0.00178571429,8.70776786 0.00178571429,5.55508929 C-0.0770535714,2.48116071 2.44517857,0.0378571429 5.51901786,0.0378571429" id="Path"></path>
            <path d="M8.59294643,44.9639286 L2.2875,44.9639286 C1.42053571,44.9639286 0.711160714,44.2545536 0.711160714,43.3875893 L0.711160714,15.8014286 C0.711160714,14.9344643 1.34169643,14.2250893 2.20866071,14.2250893 L8.59285714,14.2250893 C9.45982143,14.2250893 10.1691964,14.9344643 10.1691964,15.8014286 L10.1691964,43.4664286 C10.1691964,44.2545536 9.45991071,44.9639286 8.59294643,44.9639286" id="Path"></path>
            <path d="M45.6372321,23.8408036 C45.6372321,18.0083036 41.3022321,13.436875 35.4697321,13.436875 L33.8145536,13.436875 C30.661875,13.436875 27.5879464,14.934375 25.9327679,17.3777679 C25.3810714,17.9294643 25.1445536,18.1659821 25.1445536,18.1659821 L25.1445536,15.0133036 C25.1445536,14.6980357 24.6716071,14.2250893 24.3563393,14.2250893 L16.4745536,14.2250893 C16.1592857,14.2250893 15.6863393,14.5403571 15.6863393,14.9344643 L15.6863393,44.3334821 C15.6863393,44.64875 16.1592857,44.9640179 16.4745536,44.9640179 L25.1444643,44.9640179 C25.4597321,44.9640179 25.9326786,44.64875 25.9326786,44.3334821 L25.9326786,27.30875 C25.9326786,24.3925 28.1395536,21.9491071 31.0558036,21.8703571 C32.5533036,21.8703571 33.8932143,22.4220536 34.9178571,23.4466964 C35.8636607,24.3925 36.2577679,25.7324107 36.2577679,27.2299107 L36.2577679,44.1757143 C36.2577679,44.4909821 36.7307143,44.9640179 37.0459821,44.9640179 L44.9277679,44.9640179 C45.2430357,44.9640179 45.7159821,44.4909821 45.7159821,44.1757143 L45.7159821,23.8408036 L45.6372321,23.8408036 Z" id="Path"></path>
        </g>
    </g>
</svg>